# xmcd
#
# Track frame offsets:
#	150
#	12313
#	23471
#	35407
#	45944
#	57346
#	69858
#	81025
#	93824
#	104450
#	128826
#	139107
#	149503
#	156814
#	170325
#
# Disc length: 2399 seconds
#
# Revision: 0
# Processed by: cddbd v1.5.2PL0 Copyright (c) Steve Scherf et al.
# Submitted via: EasyCDDAExtractor 16.0.8.2
#
DISCID=b6095d0f
DTITLE=Συλλογικός δίσκος - Τα καλύτερα ξένα τραγούδια 1961
DYEAR=1961
DGENRE=Ξένη
TTITLE0=The Tokens - The lion sleeps tonight
TTITLE1=Bobby Vee - Take Good care of my baby
TTITLE2=Neil Sedaka - Calendar girl
TTITLE3=Del Shannon - Runaway
TTITLE4=Helen Shapiro - Walkin' back to happiness
TTITLE5=Roy Orbinson - Crying
TTITLE6=Timi Yuro - Hurt
TTITLE7=Jimmy Elledge - Funny how time sleeps away
TTITLE8=Jim Reeves - You 're the only Good thing(That's happened to me)
TTITLE9=Dave Brubeck - Take five
TTITLE10=The Marcels - Blue moon
TTITLE11=Ricky Nelson - Hello Mary Lou
TTITLE12=Buddy Holly - Baby i don't care
TTITLE13=Renato Carosone - Chella lla'
TTITLE14=Floyd Cramer - On the rebound
EXTD=
EXTT0=
EXTT1=
EXTT2=
EXTT3=
EXTT4=
EXTT5=
EXTT6=
EXTT7=
EXTT8=
EXTT9=
EXTT10=
EXTT11=
EXTT12=
EXTT13=
EXTT14=
PLAYORDER=
